<svg xmlns="http://www.w3.org/2000/svg" width="632.602" height="539.079" viewBox="0 0 632.602 539.079">
  <g id="Group_952" data-name="Group 952" transform="translate(-295.014 -280.009)">
    <path id="Path_327" data-name="Path 327" d="M371.874,244.89s-11.013-4.494-6.735-10.68,8.138,6.041,6.735,10.68" transform="translate(414.735 356.363)" fill="#506de4"/>
    <path id="Path_328" data-name="Path 328" d="M376.487,285.251s2.682-31-9.359-48.658" transform="translate(415.714 357.71)" fill="none" stroke="#1f2641" stroke-width="0.19"/>
    <path id="Path_329" data-name="Path 329" d="M371.807,247.309s-10.665,5.269-12.461-2.035,9.918-2.089,12.461,2.035" transform="translate(413.091 359.365)" fill="#506de4"/>
    <path id="Path_330" data-name="Path 330" d="M373.787,247.284s-2.362-1.47-8.278-1.933" transform="translate(415.181 360.593)" fill="none" stroke="#1f2641" stroke-width="0.19"/>
    <path id="Path_331" data-name="Path 331" d="M373.9,257.341s-9.19,7.552-12.6.848,9.184-4.288,12.6-.848" transform="translate(413.607 363.42)" fill="#506de4"/>
    <path id="Path_332" data-name="Path 332" d="M375.931,256.783s-2.634-.9-8.5,0" transform="translate(415.814 364.225)" fill="none" stroke="#1f2641" stroke-width="0.19"/>
    <path id="Path_333" data-name="Path 333" d="M374.5,268.062s-10.55,5.495-12.5-1.769,9.872-2.3,12.5,1.769" transform="translate(413.955 366.267)" fill="#506de4"/>
    <path id="Path_334" data-name="Path 334" d="M376.493,267.981s-2.394-1.42-8.318-1.756" transform="translate(416.059 367.464)" fill="none" stroke="#1f2641" stroke-width="0.19"/>
    <path id="Path_335" data-name="Path 335" d="M375.664,252.754s2.691-11.586,9.476-8.343-4.675,8.994-9.476,8.343" transform="translate(418.524 360.095)" fill="#506de4"/>
    <path id="Path_336" data-name="Path 336" d="M373.022,253.619s2.636-.895,6.745-5.174" transform="translate(417.654 361.612)" fill="none" stroke="#1f2641" stroke-width="0.19"/>
    <path id="Path_337" data-name="Path 337" d="M376.875,263.5s2.693-11.586,9.477-8.343-4.675,8.993-9.477,8.343" transform="translate(418.922 363.633)" fill="#506de4"/>
    <path id="Path_338" data-name="Path 338" d="M374.233,264.369s2.634-.895,6.745-5.174" transform="translate(418.053 365.15)" fill="none" stroke="#1f2641" stroke-width="0.19"/>
    <path id="Path_339" data-name="Path 339" d="M360.956,271.52a1.8,1.8,0,0,0-1.8,2.03c.121.9.343,2.387.754,4.2,3.938,17.364,28.19,19.729,35.022,3.286a24.448,24.448,0,0,0,1.81-7.586,1.809,1.809,0,0,0-1.812-1.929Z" transform="translate(413.086 369.207)" fill="#ffc873"/>
    <path id="Path_340" data-name="Path 340" d="M76.838,385.093c-10.515-17.68-13.786-37.521-5.747-55.91C79.585,309.754,97.215,292.5,95.236,271c-2.33-25.328-26.069-46.685-34.864-70.534-18.431-49.982,26.2-60.529,80.649-68.332,18.374-2.634,38.152-5.165,53.606-14.178,20.583-12,29.384-32.267,52.406-42.626,41.409-18.627,74.774,4.01,106.208,23.853,35.932,22.681,84.843,15.777,122.051,35.649,40.372,21.56,51.861,69.585,26.216,102.587-8.332,10.721-19.916,22.3-23.909,34.554-6.84,21,8.67,39.032,23.258,55.936,24.749,28.673,39.081,76.894,6.133,105.4-52.353,45.292-140.172,21.282-198.536-.04-47.571-17.383-93.006,8.19-141.215,5.427-37.6-2.153-73.433-25.069-90.4-53.6" transform="translate(313.353 302.346)" fill="#edf1ff"/>
    <path id="Path_341" data-name="Path 341" d="M592.076,387.783c6.082,20.409-8.816,27.995-155.309,31.686-354.036,8.92-409.879-9.059-409.879-30.355s149.081-46.661,354.093-22.434c114.532,13.534,195.944-29.744,211.1,21.1" transform="translate(303.722 397.279)" fill="#e7ebfa"/>
    <path id="Path_342" data-name="Path 342" d="M179.085,40.12c-3.771-2.212-4.943-4.695-2.062-6.994,3.046-2.431,9.368-4.59,8.658-7.28-.835-3.167-9.348-5.84-12.5-8.823-6.61-6.254,9.4-7.572,28.92-8.549,6.589-.33,13.681-.646,19.222-1.773,7.381-1.5,10.538-4.037,18.793-5.333,14.848-2.33,26.813.5,38.084,2.984,12.886,2.838,30.424,1.974,43.768,4.459,14.476,2.7,18.6,8.7,9.4,12.834-2.988,1.341-7.142,2.789-8.573,4.322-2.452,2.628,3.109,4.883,8.339,7,8.876,3.586,14.015,9.619,2.2,13.187-18.773,5.665-50.265,2.661-71.192-.005-17.058-2.175-33.353,1.025-50.64.678C198.019,46.558,185.17,43.691,179.085,40.12Z" transform="translate(351.376 279.999)" fill="none" stroke="#d6dfff" stroke-width="1"/>
    <path id="Path_343" data-name="Path 343" d="M451.841,96.618a25.948,25.948,0,0,0-7.263,3.91c-14.889,11.4-26.352,5.488-41.872-1.183-6.523-2.806-11.1-2.924-17.993-2.071-4.162.514-13.213,3.286-16.726-.554-7.239-7.948,14.287-11.428,17.88-14.062,8.671-6.36-1.239-21.211,13.585-21.07,8.137.076,15.826,1.531,23.357-2.248,6.888-3.457,11.409-10.3,19-12.643,21.163-6.526,40.017,9.573,59.323,15.1,7.155,2.048,8.407,4.83,9.748,11.512C518.082,109.137,470.983,89.906,451.841,96.618Z" transform="translate(415.511 294.701)" fill="none" stroke="#d6dfff" stroke-width="1"/>
    <path id="Path_344" data-name="Path 344" d="M53.121,155.951a25.429,25.429,0,0,1,6.405,2.719c13.133,7.928,23.243,3.817,36.932-.823,5.754-1.951,9.792-2.034,15.87-1.439,3.67.358,11.654,2.285,14.752-.385,6.384-5.529-12.6-7.948-15.769-9.781-7.649-4.423,1.091-14.752-11.984-14.654-7.176.053-13.959,1.065-20.6-1.563-6.076-2.4-10.064-7.165-16.759-8.794-18.667-4.539-35.3,6.658-52.324,10.5-6.311,1.424-7.415,3.359-8.6,8.007C-5.3,164.658,36.237,151.283,53.121,155.951Z" transform="translate(295 319.387)" fill="none" stroke="#d6dfff" stroke-width="0.783"/>
    <path id="Path_345" data-name="Path 345" d="M65.712,306.435s-16.9-25.714-2.027-24.839c0,0,12.141.617,2.027,24.839" transform="translate(313.819 372.516)" fill="#506de4"/>
    <path id="Path_346" data-name="Path 346" d="M65.054,314.341s3.263-19.71,9.63-20.093c0,0,16.325,1.849-9.63,20.093" transform="translate(316.284 376.688)" fill="#506de4"/>
    <path id="Path_347" data-name="Path 347" d="M70.946,318.773s-15.854-15.608-17.587-8.488c0,0-3.509,8.8,17.587,8.488" transform="translate(312.362 381.354)" fill="#506de4"/>
    <path id="Path_348" data-name="Path 348" d="M68.1,326.551s7.457-19.539,16.969-18.741c0,0,12.664,3.708-16.969,18.741" transform="translate(317.285 381.144)" fill="#506de4"/>
    <path id="Path_349" data-name="Path 349" d="M74.2,328.11s-17.23-14.887-20.064-2.218c0,0-2.149,9.194,20.064,2.218" transform="translate(312.673 385.423)" fill="#506de4"/>
    <path id="Path_350" data-name="Path 350" d="M72.376,338.372s5.028-21.544,15.1-19.3c0,0,13.96,5.345-15.1,19.3" transform="translate(318.694 384.804)" fill="#506de4"/>
    <path id="Path_351" data-name="Path 351" d="M79.643,339.488S61.73,328.711,58.56,336.447c0,0-4.94,11.358,21.083,3.041" transform="translate(314.023 389.658)" fill="#506de4"/>
    <path id="Path_352" data-name="Path 352" d="M78.94,348.842s6.5-23.2,16.688-14.7c0,0,6.5,8.79-16.688,14.7" transform="translate(320.855 389.202)" fill="#506de4"/>
    <path id="Path_353" data-name="Path 353" d="M87.547,351.121s-21.809-10.667-22.055,2.4c0,0-.121,11.148,22.055-2.4" transform="translate(316.428 394.058)" fill="#506de4"/>
    <path id="Path_354" data-name="Path 354" d="M86.423,359.583S88.588,342.5,97.9,341.86c0,0,14.027,3.121-11.473,17.723" transform="translate(323.318 392.36)" fill="#506de4"/>
    <path id="Path_355" data-name="Path 355" d="M96.135,358.627s-29.018-7.328-27.192,5.856c0,0,1.264,13.657,27.192-5.856" transform="translate(317.537 397.21)" fill="#506de4"/>
    <path id="Path_356" data-name="Path 356" d="M68.485,309.4s-24.165-3.651-16.129-13.438c0,0,4.963-5.977,16.129,13.438" transform="translate(311.566 376.968)" fill="#506de4"/>
    <path id="Path_357" data-name="Path 357" d="M63.045,290.824s-.086,63.407,41.145,94.612" transform="translate(315.623 375.561)" fill="none" stroke="#090e21" stroke-width="0.29"/>
    <path id="Path_358" data-name="Path 358" d="M67.689,307.818s-9.155-5.333-13.216-8.758" transform="translate(312.801 378.272)" fill="none" stroke="#090e21" stroke-width="0.29"/>
    <path id="Path_359" data-name="Path 359" d="M65.306,311.173s8.283-5.891,10.145-13.141" transform="translate(316.367 377.934)" fill="none" stroke="#090e21" stroke-width="0.29"/>
    <path id="Path_360" data-name="Path 360" d="M68.016,324.9s11.02-8.051,13.242-13.188" transform="translate(317.259 382.438)" fill="none" stroke="#090e21" stroke-width="0.29"/>
    <path id="Path_361" data-name="Path 361" d="M69.478,317.715s-8.56-3.555-11.88-6.077" transform="translate(313.83 382.412)" fill="none" stroke="#090e21" stroke-width="0.29"/>
    <path id="Path_362" data-name="Path 362" d="M72.574,326.4s-10.269-.67-12.608-1.26" transform="translate(314.609 386.858)" fill="none" stroke="#090e21" stroke-width="0.29"/>
    <path id="Path_363" data-name="Path 363" d="M72.291,335.808s7.111-6.43,9.667-9.923" transform="translate(318.666 387.102)" fill="none" stroke="#090e21" stroke-width="0.29"/>
    <path id="Path_364" data-name="Path 364" d="M77.992,338.219s-10.143.509-14.292-1.152" transform="translate(315.838 390.782)" fill="none" stroke="#090e21" stroke-width="0.29"/>
    <path id="Path_365" data-name="Path 365" d="M78.94,346.9s2.648-1.99,9.151-8.727" transform="translate(320.855 391.146)" fill="none" stroke="#090e21" stroke-width="0.29"/>
    <path id="Path_366" data-name="Path 366" d="M83.768,349.426a40.027,40.027,0,0,1-12.947,2.557" transform="translate(318.182 394.85)" fill="none" stroke="#090e21" stroke-width="0.29"/>
    <line id="Line_9" data-name="Line 9" y1="11.554" x2="9.016" transform="translate(409.624 740.351)" fill="none" stroke="#090e21" stroke-width="0.29"/>
    <line id="Line_10" data-name="Line 10" x1="18.366" y2="5.011" transform="translate(395.306 755.837)" fill="none" stroke="#090e21" stroke-width="0.29"/>
    <path id="Path_367" data-name="Path 367" d="M108.512,313.137s3.225-22.988,11.217-15.089c0,0,6.574,6.393-11.217,15.089" transform="translate(330.589 377.395)" fill="#4dc7b8"/>
    <path id="Path_368" data-name="Path 368" d="M104.758,316.593s11.665-9.549,15.463-6.6c0,0,8.333,9.177-15.463,6.6" transform="translate(329.353 381.685)" fill="#4dc7b8"/>
    <path id="Path_369" data-name="Path 369" d="M104.028,322.894s-1.216-16.739-5.745-13.567c0,0-6.369,3.24,5.745,13.567" transform="translate(326.671 381.52)" fill="#4dc7b8"/>
    <path id="Path_370" data-name="Path 370" d="M100.241,324.436s13.952-7.362,18.948-2.175c0,0,5.331,8.407-18.948,2.175" transform="translate(327.866 385.299)" fill="#4dc7b8"/>
    <path id="Path_371" data-name="Path 371" d="M101.486,329.57s-2.354-17.016-10.268-11.247c0,0-5.8,4.142,10.268,11.247" transform="translate(324.561 384.22)" fill="#4dc7b8"/>
    <path id="Path_372" data-name="Path 372" d="M96.869,333.545s13.575-9.708,18.167-3.423c0,0,5.251,9.981-18.167,3.423" transform="translate(326.756 387.799)" fill="#4dc7b8"/>
    <path id="Path_373" data-name="Path 373" d="M98.792,338.8S94,323.777,88.354,326.585c0,0-8.455,3.978,10.438,12.22" transform="translate(323.333 387.217)" fill="#4dc7b8"/>
    <path id="Path_374" data-name="Path 374" d="M95.021,342.874s15.232-9.918,16.777-.024c0,0-.7,8.216-16.777.024" transform="translate(326.148 391.241)" fill="#4dc7b8"/>
    <path id="Path_375" data-name="Path 375" d="M97.709,349.222s-7.051-16.9-13.693-9.623c0,0-5.618,6.26,13.693,9.623" transform="translate(322.275 391.017)" fill="#4dc7b8"/>
    <path id="Path_376" data-name="Path 376" d="M94.055,352.8s9.729-8.6,15.327-4.333c0,0,6.4,8.751-15.327,4.333" transform="translate(325.83 394.143)" fill="#4dc7b8"/>
    <path id="Path_377" data-name="Path 377" d="M98.98,357.634s-12.8-18.6-18.329-10.217c0,0-6.084,8.368,18.329,10.217" transform="translate(321.196 393.474)" fill="#4dc7b8"/>
    <path id="Path_378" data-name="Path 378" d="M107.462,316.227s-11.88-14.1-2.451-15.647c0,0,5.787-.917,2.451,15.647" transform="translate(328.239 378.769)" fill="#4dc7b8"/>
    <path id="Path_379" data-name="Path 379" d="M119.049,303.309s-31.618,35.9-23.781,74.113" transform="translate(325.818 379.671)" fill="none" stroke="#090e21" stroke-linecap="round" stroke-linejoin="round" stroke-width="0.29"/>
    <path id="Path_380" data-name="Path 380" d="M107.023,315.253a97.055,97.055,0,0,1-3.132-11.542" transform="translate(329.068 379.803)" fill="none" stroke="#090e21" stroke-linecap="round" stroke-linejoin="round" stroke-width="0.29"/>
    <path id="Path_381" data-name="Path 381" d="M105.622,314.718s7.628.784,12.292-2.4" transform="translate(329.637 382.636)" fill="none" stroke="#090e21" stroke-linecap="round" stroke-linejoin="round" stroke-width="0.29"/>
    <path id="Path_382" data-name="Path 382" d="M100.328,323.468s10.254.925,14.072-.883" transform="translate(327.895 386.015)" fill="none" stroke="#090e21" stroke-linecap="round" stroke-linejoin="round" stroke-width="0.29"/>
    <path id="Path_383" data-name="Path 383" d="M103.11,321.753s-3.081-6.278-3.71-9.359" transform="translate(327.589 382.661)" fill="none" stroke="#090e21" stroke-linecap="round" stroke-linejoin="round" stroke-width="0.29"/>
    <path id="Path_384" data-name="Path 384" d="M100.54,328.221s-5.487-5.493-6.52-6.993" transform="translate(325.819 385.569)" fill="none" stroke="#090e21" stroke-linecap="round" stroke-linejoin="round" stroke-width="0.29"/>
    <path id="Path_385" data-name="Path 385" d="M96.92,332.218s7.232-.105,10.418-.812" transform="translate(326.773 388.919)" fill="none" stroke="#090e21" stroke-linecap="round" stroke-linejoin="round" stroke-width="0.29"/>
    <path id="Path_386" data-name="Path 386" d="M97.727,337.616s-6-4.762-7.527-7.77" transform="translate(324.561 388.405)" fill="none" stroke="#090e21" stroke-linecap="round" stroke-linejoin="round" stroke-width="0.29"/>
    <path id="Path_387" data-name="Path 387" d="M95.021,341.878a71.983,71.983,0,0,0,9.53-.391" transform="translate(326.148 392.237)" fill="none" stroke="#090e21" stroke-linecap="round" stroke-linejoin="round" stroke-width="0.29"/>
    <path id="Path_388" data-name="Path 388" d="M95.737,346.484a30.2,30.2,0,0,1-8.612-5" transform="translate(323.549 392.237)" fill="none" stroke="#090e21" stroke-linecap="round" stroke-linejoin="round" stroke-width="0.29"/>
    <line id="Line_11" data-name="Line 11" y1="2.059" x2="10.862" transform="translate(419.838 744.805)" fill="none" stroke="#090e21" stroke-linecap="round" stroke-linejoin="round" stroke-width="0.29"/>
    <line id="Line_12" data-name="Line 12" x1="12.906" y1="6.303" transform="translate(407.269 744.805)" fill="none" stroke="#090e21" stroke-linecap="round" stroke-linejoin="round" stroke-width="0.29"/>
    <path id="Path_389" data-name="Path 389" d="M65.607,359.469h52.823l-8.616,32.746h-33.7Z" transform="translate(316.466 398.156)" fill="#ffb440"/>
    <path id="Path_390" data-name="Path 390" d="M62.509,357.827h61.346l-4.4,10.916H67.479Z" transform="translate(315.447 397.615)" fill="#ffc873"/>
    <path id="Path_391" data-name="Path 391" d="M206.717,371.66l.5,9.619H217.5l-.455-13.179Z" transform="translate(362.913 400.997)" fill="#f3b595"/>
    <path id="Path_392" data-name="Path 392" d="M226.027,380.14c0,.977.155,3.077-2.141,3.819-5.262,1.7-16.588,1.479-23.583,1.479-7.57,0-10.663-2.084-10.663-5.3,0-2.411,5.939-.958,13.645-2.046,2.571-.364,6.464-3.945,8.734-2.868,7.277,3.457,8.981,1.933,11.354,1.486,1.123-.213,2.654,1.966,2.654,3.428" transform="translate(357.293 403.276)" fill="#090e21"/>
    <path id="Path_393" data-name="Path 393" d="M248.057,371.66l-.5,9.619H237.278l.453-13.179Z" transform="translate(372.973 400.997)" fill="#f3b595"/>
    <path id="Path_394" data-name="Path 394" d="M235.088,380.14c0,.977-.157,3.077,2.14,3.819,5.265,1.7,16.589,1.479,23.585,1.479,7.57,0,10.663-2.084,10.663-5.3,0-2.411-5.937-.958-13.645-2.046-2.569-.364-6.464-3.945-8.734-2.868-7.276,3.457-8.981,1.933-11.351,1.486-1.126-.213-2.657,1.966-2.657,3.428" transform="translate(372.251 403.276)" fill="#090e21"/>
    <path id="Path_395" data-name="Path 395" d="M201.157,226.416s-4.112,79.638-6.829,107.761c0,0,7.968,55.515,13.88,88.382,0,0,5.205,2.3,13.366.069l5.077-80.4,21.237-115.815Z" transform="translate(358.836 354.361)" fill="#1e2e6e"/>
    <path id="Path_396" data-name="Path 396" d="M259.208,226.726s3.857,79.839,6.4,107.962c0,0-5.12,54.207-10.66,87.075a17.515,17.515,0,0,1-13.71,1.832l-5.928-80.878-8.917-51.958-2.245-66.5Z" transform="translate(368.652 353.649)" fill="#19265c"/>
    <path id="Path_397" data-name="Path 397" d="M199.853,263.611l-.132,1.449" transform="translate(360.611 366.604)" fill="none" stroke="#fff" stroke-linecap="round" stroke-linejoin="round" stroke-width="0.275"/>
    <path id="Path_398" data-name="Path 398" d="M200.859,266.872c-1.029,11.2-3.816,41.177-5.4,54.369L207.907,403.6" transform="translate(359.208 367.677)" fill="none" stroke="#fff" stroke-linecap="round" stroke-linejoin="round" stroke-width="0.275" stroke-dasharray="2.185 2.185"/>
    <line id="Line_13" data-name="Line 13" x2="0.218" y2="1.443" transform="translate(567.334 772.728)" fill="none" stroke="#fff" stroke-linecap="round" stroke-linejoin="round" stroke-width="0.275"/>
    <path id="Path_399" data-name="Path 399" d="M251.693,264.959s.009.516.029,1.454" transform="translate(377.718 367.047)" fill="none" stroke="#fff" stroke-linecap="round" stroke-linejoin="round" stroke-width="0.275"/>
    <path id="Path_400" data-name="Path 400" d="M252.979,268.233c.258,10.9,1.061,39.448,2.636,52.562l-7.536,79.117" transform="translate(376.528 368.125)" fill="none" stroke="#fff" stroke-linecap="round" stroke-linejoin="round" stroke-width="0.275" stroke-dasharray="2.185 2.185"/>
    <line id="Line_14" data-name="Line 14" x1="0.138" y2="1.454" transform="translate(624.33 769.493)" fill="none" stroke="#fff" stroke-linecap="round" stroke-linejoin="round" stroke-width="0.275"/>
    <path id="Path_401" data-name="Path 401" d="M272.919,171.476c-7.656-10.043-18.59-14.832-30.249-19.731a26.19,26.19,0,0,0-16.062-1.713,30.9,30.9,0,0,0-8.649,3.381,90.28,90.28,0,0,0-13.629,7.482c1.467,18.389-6.4,35.934-8.871,54.667,1.083-2.169,2.184-4.305,3.213-6.29-2.325,20.446-.377,69.078-.377,69.078,48.068,9.219,72.151,3.441,72.151-4.2,0-23.756-2.035-56.455-4.45-70.172,1.51,2.384,3.278,5.019,5.035,7.567.895-13.576,2.044-26.757,1.889-40.07" transform="translate(359.208 329.029)" fill="#506de4"/>
    <path id="Path_402" data-name="Path 402" d="M204,255.757s-4.253-55.686-4.988-64.008c-.51.99-.275,3.973-.851,5.083-2.325,20.446-.377,69.078-.377,69.078,48.068,9.218,72.151,3.44,72.151-4.2,0-16.6-.427-48.226-5.383-74.459.949,9.582-.912,15.374-7.245,57.616,0,0-33.391,18.1-53.306,10.891" transform="translate(359.721 341.469)" fill="#4862cf"/>
    <path id="Path_403" data-name="Path 403" d="M192.013,249.3s1.941,12.251,11.766,18.8a43.09,43.09,0,0,0,5.7-16.374s-8.759-5.448-13.49-9.087Z" transform="translate(358.074 359.7)" fill="#f3b595"/>
    <path id="Path_404" data-name="Path 404" d="M262.588,249.3s-1.941,12.251-11.766,18.8a43.064,43.064,0,0,1-5.7-16.374s8.758-5.448,13.49-9.087Z" transform="translate(375.555 359.7)" fill="#f3b595"/>
    <path id="Path_405" data-name="Path 405" d="M211.112,158.061a44.108,44.108,0,0,0-10.419,9.309c-14.819,19.605-25.835,56.715-25.835,66.225,0,4.842,20.36,48.93,24.017,51.062,2.91,1.7,8.247-10.673,8.247-10.673-1.953-12.129-11.16-45.848-11.16-45.848.767-3.861,3.448-9.739,6.279-15.408,2.47-18.734,10.338-36.279,8.871-54.668" transform="translate(352.427 331.861)" fill="#506de4"/>
    <path id="Path_406" data-name="Path 406" d="M280.377,214.237c-1.57-11.643-17.646-35.419-24.076-45.452-.621-.969-1.279-1.877-1.951-2.761.156,13.312-.994,26.493-1.889,40.069,4.377,6.345,8.679,12.147,8.679,12.147,0,3.94-9.264,50.457-9.264,50.457s8.007,12.045,10.674,9.216c4.477-4.746,18.7-57.174,17.827-63.677" transform="translate(377.778 334.482)" fill="#506de4"/>
    <path id="Path_407" data-name="Path 407" d="M217.142,131.557,211.177,160.4s14.675,7.994,26.441-.727l-6.695-30.747Z" transform="translate(364.382 322.272)" fill="#f3b595"/>
    <path id="Path_408" data-name="Path 408" d="M217.142,131.557,211.177,160.4s.476.258,1.316.629a165.854,165.854,0,0,0,21.853-16.382l-3.423-15.721Z" transform="translate(364.382 322.272)" fill="#f2ac88"/>
    <path id="Path_409" data-name="Path 409" d="M246.107,137.216a20.093,20.093,0,0,1-20.1,19.8h-.253c-10.91,0-19.067-8.889-19.067-19.8V115.6c0-10.911,8.157-19.908,19.067-19.908H226a20.186,20.186,0,0,1,20.1,19.908Z" transform="translate(362.902 311.331)" fill="#f3b595"/>
    <path id="Path_410" data-name="Path 410" d="M216.217,115.425a1.114,1.114,0,1,1-1.115-1.114,1.116,1.116,0,0,1,1.115,1.114" transform="translate(365.307 317.46)" fill="#42210b"/>
    <path id="Path_411" data-name="Path 411" d="M228.263,115.425a1.115,1.115,0,1,1-1.114-1.114,1.115,1.115,0,0,1,1.114,1.114" transform="translate(369.272 317.46)" fill="#42210b"/>
    <path id="Path_412" data-name="Path 412" d="M221.33,117.34a31.109,31.109,0,0,1-1.758,11.157,11.273,11.273,0,0,1,3.518,1.455" transform="translate(367.145 318.457)" fill="none" stroke="#42210b" stroke-linecap="round" stroke-linejoin="round" stroke-width="0.549"/>
    <path id="Path_413" data-name="Path 413" d="M219.024,134.685s9.317,3.154,13.585-7.4" transform="translate(366.965 321.732)" fill="none" stroke="#42210b" stroke-linecap="round" stroke-linejoin="round" stroke-width="0.549"/>
    <line id="Line_15" data-name="Line 15" y1="2.309" x2="4.546" transform="translate(576.043 427.181)" fill="none" stroke="#172354" stroke-linecap="round" stroke-linejoin="round" stroke-width="1.099"/>
    <line id="Line_16" data-name="Line 16" x1="4.546" y1="2.309" transform="translate(595.692 427.181)" fill="none" stroke="#172354" stroke-linecap="round" stroke-linejoin="round" stroke-width="1.099"/>
    <path id="Path_414" data-name="Path 414" d="M214.361,121.391c0,4.253-2.879,7.7-6.429,7.7s-6.429-3.448-6.429-7.7,2.878-7.7,6.429-7.7,6.429,3.448,6.429,7.7" transform="translate(361.197 317.256)" fill="#f3b595"/>
    <path id="Path_415" data-name="Path 415" d="M243.927,121.391c0,4.253-2.878,7.7-6.428,7.7s-6.429-3.448-6.429-7.7,2.876-7.7,6.429-7.7,6.428,3.448,6.428,7.7" transform="translate(370.93 317.256)" fill="#f3b595"/>
    <path id="Path_416" data-name="Path 416" d="M231.1,96.466c.821-.783,4.184-1.412,5.153-1.378,4.542.159,3.589,14.073,3.6,15.7.025,3.758-2.985,15.226-3.011,15.817.312-7.334.012-14.346-1.39-19.038-1.2-4.017-7.612-6.86-4.7-10.72a2.947,2.947,0,0,1,.346-.383" transform="translate(370.578 311.132)" fill="#1e2e6e"/>
    <path id="Path_417" data-name="Path 417" d="M213.326,96.465a4.689,4.689,0,0,0-3-1.377c-4.289.16-4.968,7.01-5.182,10.809-.092,1.627-.076,3.263-.085,4.891a28.567,28.567,0,0,0,.532,7.57c.31,1.758,2.341,7.165,2.366,7.757-.3-7.334-.237-11.323,1.086-16.015,1.132-4.018,7.361-9.392,4.611-13.252a3.051,3.051,0,0,0-.326-.383" transform="translate(362.361 311.133)" fill="#1e2e6e"/>
    <path id="Path_418" data-name="Path 418" d="M209.052,111.123c-7.321-1.937-9.422-5.608-9.7-5.636,1.374.134,7.967-6.6,9.884-9.009,13.6-17.088,30.21-8.225,33.794-3.2,1.692,2.371,1.786,7.195-.173,9.474-1.614,1.878-18.748,12.353-33.8,8.371" transform="translate(360.489 308.292)" fill="#1e2e6e"/>
    <path id="Path_419" data-name="Path 419" d="M201.43,98.795s5.4,2.557,19.907-9.271l-11.354,15.337s-6.659,2.818-8.553-6.066" transform="translate(361.173 309.302)" fill="#1e2e6e"/>
    <path id="Path_420" data-name="Path 420" d="M206.232,120.114a2.336,2.336,0,0,0-1.959-.526,2.289,2.289,0,0,1,.852-.96.653.653,0,0,0-.69-1.11,3.109,3.109,0,0,0-1.514,2.311,2.7,2.7,0,0,0,1.57,2.209.638.638,0,0,0,.338.1.652.652,0,0,0,.558-.312.642.642,0,0,0,.082-.448,2.917,2.917,0,0,1-.11,1.247.653.653,0,0,0,.465.8.739.739,0,0,0,.166.021.653.653,0,0,0,.631-.488,2.814,2.814,0,0,0-.389-2.838m-.936.914c.005.005.015.008.02.013a.509.509,0,0,1,.1.152.606.606,0,0,0-.116-.165m.137.213.02.057a.415.415,0,0,0-.02-.057" transform="translate(361.664 318.484)" fill="#915e44"/>
    <path id="Path_421" data-name="Path 421" d="M236.191,122.952a.655.655,0,0,0,.633.488.71.71,0,0,0,.165-.021.652.652,0,0,0,.465-.8,2.913,2.913,0,0,1-.109-1.247.642.642,0,0,0,.082.448.651.651,0,0,0,.557.312.643.643,0,0,0,.339-.1,2.693,2.693,0,0,0,1.568-2.209,3.109,3.109,0,0,0-1.513-2.311.653.653,0,0,0-.69,1.11,2.289,2.289,0,0,1,.852.96,2.335,2.335,0,0,0-1.959.526,2.82,2.82,0,0,0-.391,2.838m1.21-1.758a.514.514,0,0,1,.1-.152l.019-.013a.611.611,0,0,0-.117.165m-.04.105c.005-.02.013-.039.019-.057-.007.019-.013.037-.019.057" transform="translate(372.555 318.484)" fill="#915e44"/>
    <path id="Path_422" data-name="Path 422" d="M198.108,197.833c1.366-6.061,2.378-11.667,3.914-17.118" transform="translate(360.08 339.318)" fill="none" stroke="#4259ba" stroke-linecap="round" stroke-linejoin="round" stroke-width="1.099"/>
    <path id="Path_423" data-name="Path 423" d="M249.117,195.081c-1.167-5.019-2.444-10.189-3.676-14.542" transform="translate(375.66 339.26)" fill="none" stroke="#4259ba" stroke-linecap="round" stroke-linejoin="round" stroke-width="1.099"/>
    <path id="Path_424" data-name="Path 424" d="M211.177,153.08s15.487,9.817,26.32-1.9" transform="translate(364.382 329.595)" fill="none" stroke="#4259ba" stroke-linecap="round" stroke-linejoin="round" stroke-width="2.197"/>
    <path id="Path_425" data-name="Path 425" d="M233.872,184.365a20.748,20.748,0,0,0,10.623-.666s3.833,13.516-4.455,13.993C240.039,197.692,230.812,198.271,233.872,184.365Z" transform="translate(371.647 340.3)" fill="none" stroke="#fff" stroke-linecap="round" stroke-linejoin="round" stroke-width="1.099"/>
    <path id="Path_426" data-name="Path 426" d="M122.872,108.173a13.931,13.931,0,1,1-13.931-13.932,13.932,13.932,0,0,1,13.931,13.932" transform="translate(326.144 310.854)" fill="#dae2f5"/>
    <path id="Path_427" data-name="Path 427" d="M114.347,97.955c-2-.506-4.946,2.678-6.69,7.177-2.388-3.894-5.628-6.415-7.437-5.7-1.913.752-1.5,4.826.912,9.1,1.99,3.522,4.725,6.08,6.695,6.445a1.7,1.7,0,0,0,.3.113c2.068.521,5.137-2.89,6.854-7.62s1.432-8.989-.635-9.511" transform="translate(327.463 312.059)" fill="#8ea3f5"/>
    <path id="Path_428" data-name="Path 428" d="M349.633,101.437A13.931,13.931,0,1,1,335.7,87.5a13.932,13.932,0,0,1,13.931,13.932" transform="translate(400.784 308.637)" fill="#dae2f5"/>
    <path id="Path_429" data-name="Path 429" d="M341.108,91.219c-2-.506-4.946,2.678-6.69,7.177-2.389-3.894-5.628-6.415-7.437-5.7-1.913.752-1.5,4.826.912,9.1,1.991,3.522,4.725,6.08,6.7,6.445a1.7,1.7,0,0,0,.3.113c2.068.521,5.137-2.89,6.854-7.62s1.432-8.988-.635-9.511" transform="translate(402.103 309.842)" fill="#8ea3f5"/>
    <path id="Path_430" data-name="Path 430" d="M275.25,80.86a19.507,19.507,0,1,1-19.5-19.507,19.5,19.5,0,0,1,19.5,19.507" transform="translate(372.63 300.029)" fill="#f38061"/>
    <path id="Path_431" data-name="Path 431" d="M246.719,77.518a3.577,3.577,0,1,1-3.578-3.577,3.58,3.58,0,0,1,3.578,3.577" transform="translate(373.726 304.172)" fill="#fff"/>
    <path id="Path_432" data-name="Path 432" d="M255.084,77.518a3.579,3.579,0,1,1-3.579-3.577,3.579,3.579,0,0,1,3.579,3.577" transform="translate(376.478 304.172)" fill="#fff"/>
    <path id="Path_433" data-name="Path 433" d="M263.443,77.518a3.575,3.575,0,1,1-3.573-3.577,3.574,3.574,0,0,1,3.573,3.577" transform="translate(379.232 304.172)" fill="#fff"/>
    <path id="Path_434" data-name="Path 434" d="M460.475,129.131a19.507,19.507,0,1,1-19.5-19.507,19.5,19.5,0,0,1,19.5,19.507" transform="translate(433.599 315.918)" fill="#f38061"/>
    <path id="Path_435" data-name="Path 435" d="M431.944,125.789a3.577,3.577,0,1,1-3.578-3.577,3.58,3.58,0,0,1,3.578,3.577" transform="translate(434.694 320.061)" fill="#fff"/>
    <path id="Path_436" data-name="Path 436" d="M440.308,125.789a3.578,3.578,0,1,1-3.578-3.577,3.578,3.578,0,0,1,3.578,3.577" transform="translate(437.446 320.061)" fill="#fff"/>
    <path id="Path_437" data-name="Path 437" d="M448.669,125.789a3.575,3.575,0,1,1-3.573-3.577,3.574,3.574,0,0,1,3.573,3.577" transform="translate(440.2 320.061)" fill="#fff"/>
    <path id="Path_438" data-name="Path 438" d="M279.01,365.849l-7.317,6.018-6.938-7.584,9.969-8.507Z" transform="translate(382.017 396.941)" fill="#f3b595"/>
    <path id="Path_439" data-name="Path 439" d="M262.884,361.532c-.72.661-2.375,1.963-1.372,4.158,2.3,5.032,10.107,13.24,14.828,18.4,5.109,5.584,8.735,6.458,11.106,4.288,1.78-1.626-3.3-5.027-7.7-11.447-1.466-2.141-1.453-7.431-3.779-8.38-7.463-3.034-7.488-5.321-8.759-7.37-.6-.974-3.246-.634-4.324.352" transform="translate(380.846 398.528)"/>
    <path id="Path_440" data-name="Path 440" d="M281.905,371.66l.5,9.619h10.281L292.23,368.1Z" transform="translate(387.662 400.997)" fill="#f3b595"/>
    <path id="Path_441" data-name="Path 441" d="M301.216,380.14c0,.977.157,3.077-2.14,3.819-5.263,1.7-16.589,1.479-23.585,1.479-7.57,0-10.663-2.084-10.663-5.3,0-2.411,5.937-.958,13.645-2.046,2.569-.364,6.464-3.945,8.734-2.868,7.276,3.457,8.981,1.933,11.352,1.486,1.124-.213,2.656,1.966,2.656,3.428" transform="translate(382.042 403.276)" fill="#090e21"/>
    <path id="Path_442" data-name="Path 442" d="M334.181,245.8s6.383,68.732,1.22,96.493c0,0-8.554,14.288-57.34,71.017a34.335,34.335,0,0,0-10.476-10.676l39.164-70.412-7.6-89.047,1.949-20.332Z" transform="translate(382.949 353.184)" fill="#19265c"/>
    <path id="Path_443" data-name="Path 443" d="M266.294,227.065s-2.492,26.664,5.133,112.422c0,0,7.954,48.169,13.866,81.036,0,0,5.648,2.23,13.807,0l.6-77.29,3.731-57.147-1.964-61.831Z" transform="translate(382.396 353.649)" fill="#1e2e6e"/>
    <path id="Path_444" data-name="Path 444" d="M330.435,167.37c-.421-.178-21.076-15.449-21.5-15.627a26.2,26.2,0,0,0-16.063-1.713,30.926,30.926,0,0,0-8.645,3.381s-20.191,15.64-20.622,15.833l4.89,28.105c-2.533,17.736,2.214,55.337,3.146,73.074,15.077,2.08,47.467,3.614,56.468,2.886-3.033-14.742.852-68.06.048-82.539Z" transform="translate(381.639 329.029)" fill="#f38061"/>
    <path id="Path_445" data-name="Path 445" d="M282.643,226.743c1.7-17.05,6.617-46.794,5.739-64.532-.347-7.015-1.687-3.189-4.357-9.559a91.345,91.345,0,0,0-12.963,7.189c1.467,18.389-6.4,35.934-8.871,54.667,1.082-2.169,2.184-4.305,3.213-6.29-2.325,20.448-.379,69.079-.379,69.079,5.694,1.093,11.04,1.967,16.06,2.66-.932-17.738-.976-35.475,1.558-53.214" transform="translate(381.173 330.081)" fill="#53d6c6"/>
    <path id="Path_446" data-name="Path 446" d="M328.811,170.778c-7.38-9.678-17.8-14.477-28.986-19.2-1.782,5.64-4.07,4.114-4.411,10.157-2.309,40.9,9.628,82.489,10.88,118.577,13.307-1.077,20.045-2.842,20.045-6.86,0-23.756-2.035-56.455-4.449-70.172,1.507,2.384,3.276,5.019,5.034,7.567.893-13.576,2.044-26.757,1.887-40.07" transform="translate(392.011 329.727)" fill="#53d6c6"/>
    <path id="Path_447" data-name="Path 447" d="M280.934,216.684l-.2,1.923-16.894,8.274s-.505-8.564-.047-10.605Z" transform="translate(381.639 351.023)" fill="#4dc7b8"/>
    <path id="Path_448" data-name="Path 448" d="M316.263,205.845s5.8-.053,14.73-2.94l-12.317-12.836s-14.072,11.557-15.107,17.918Z" transform="translate(394.793 342.397)" fill="#f3b595"/>
    <path id="Path_449" data-name="Path 449" d="M299.632,215.481l.622,4.3,23.9,9.274-1.019-19.388Z" transform="translate(393.497 348.848)" fill="#4dc7b8"/>
    <path id="Path_450" data-name="Path 450" d="M275.476,158.061a44.1,44.1,0,0,0-10.422,9.309c-14.817,19.605-17.783,61.916-15.659,71.186,3.647,15.915,80.462-16.258,83.219-19.468,1.826-2.12-2.3-13.458-2.3-13.458-15.148,0-63,11.666-63,11.666l2.832-13.588c2.468-18.733,6.8-27.258,5.331-45.647" transform="translate(376.759 331.861)" fill="#53d6c6"/>
    <path id="Path_451" data-name="Path 451" d="M276,200.561a81.08,81.08,0,0,0-9.747-11.588l-3.63,18.081s15.309,3.169,21.455,1.235Z" transform="translate(381.316 342.036)" fill="#f3b595"/>
    <path id="Path_452" data-name="Path 452" d="M286.624,197.317s25.952,2.018,33.273,2.164c0,0,1.194,2.936.315,9.038,0,0-32.57,1-33.588-11.2" transform="translate(389.216 344.782)" fill="#4dc7b8"/>
    <path id="Path_453" data-name="Path 453" d="M269.625,202.608s3.291,1.72-2.04.949c0,0,10.984,10.674,23.22,15.887,0,0,9.268-2.116,14.654-7.047Z" transform="translate(382.949 346.524)" fill="#4dc7b8"/>
    <path id="Path_454" data-name="Path 454" d="M353.473,239.072c3.226-7.245-3.688-43.083-13.462-65.587-4.7-10.819-13.163-13.7-17.237-16.967-.9-.719,2.241,14.283,1.346,27.858L333.984,216c0,3.938-60.837-9.04-60.837-9.04s-8.029,10.4-4.794,12.553c11.958,7.971,79.286,32.672,85.119,19.564" transform="translate(382.949 331.345)" fill="#53d6c6"/>
    <path id="Path_455" data-name="Path 455" d="M283.873,131.557,277.908,160.4s14.677,20.246,26.441-.727l-6.692-30.747Z" transform="translate(386.347 322.272)" fill="#f3b595"/>
    <path id="Path_456" data-name="Path 456" d="M283.873,131.557,277.908,160.4s.477.258,1.317.629a165.937,165.937,0,0,0,21.853-16.382l-3.421-15.721Z" transform="translate(386.347 322.272)" fill="#f2ac88"/>
    <path id="Path_457" data-name="Path 457" d="M312.02,137.3a19.712,19.712,0,0,1-39.424,0V115.4a19.712,19.712,0,1,1,39.424,0Z" transform="translate(384.598 311.331)" fill="#f3b595"/>
    <path id="Path_458" data-name="Path 458" d="M282.948,115.425a1.115,1.115,0,1,1-1.114-1.114,1.114,1.114,0,0,1,1.114,1.114" transform="translate(387.272 317.46)" fill="#42210b"/>
    <path id="Path_459" data-name="Path 459" d="M294.994,115.425a1.114,1.114,0,1,1-1.115-1.114,1.116,1.116,0,0,1,1.115,1.114" transform="translate(391.237 317.46)" fill="#42210b"/>
    <path id="Path_460" data-name="Path 460" d="M288.062,117.34A31.059,31.059,0,0,1,286.3,128.5a11.273,11.273,0,0,1,3.52,1.455" transform="translate(389.11 318.457)" fill="none" stroke="#42210b" stroke-linecap="round" stroke-linejoin="round" stroke-width="0.549"/>
    <line id="Line_17" data-name="Line 17" y1="2.309" x2="4.547" transform="translate(664.738 427.181)" fill="none" stroke="#172354" stroke-linecap="round" stroke-linejoin="round" stroke-width="1.099"/>
    <line id="Line_18" data-name="Line 18" x1="4.547" y1="2.309" transform="translate(684.388 427.181)" fill="none" stroke="#172354" stroke-linecap="round" stroke-linejoin="round" stroke-width="1.099"/>
    <path id="Path_461" data-name="Path 461" d="M281.092,121.391c0,4.253-2.879,7.7-6.429,7.7s-6.428-3.448-6.428-7.7,2.878-7.7,6.428-7.7,6.429,3.448,6.429,7.7" transform="translate(383.163 317.256)" fill="#f3b595"/>
    <path id="Path_462" data-name="Path 462" d="M310.658,121.391c0,4.253-2.878,7.7-6.429,7.7s-6.428-3.448-6.428-7.7,2.878-7.7,6.428-7.7,6.429,3.448,6.429,7.7" transform="translate(392.895 317.256)" fill="#f3b595"/>
    <path id="Path_463" data-name="Path 463" d="M272.964,120.114a2.34,2.34,0,0,0-1.961-.526,2.3,2.3,0,0,1,.852-.96.653.653,0,0,0-.69-1.11,3.109,3.109,0,0,0-1.514,2.311,2.7,2.7,0,0,0,1.57,2.209.635.635,0,0,0,.338.1.644.644,0,0,0,.641-.76,2.9,2.9,0,0,1-.11,1.247.654.654,0,0,0,.467.8.708.708,0,0,0,.163.021.654.654,0,0,0,.633-.488,2.817,2.817,0,0,0-.388-2.838m-.938.914c.007.005.016.008.021.013a.515.515,0,0,1,.1.152.59.59,0,0,0-.118-.165m.137.213a.289.289,0,0,1,.02.057.224.224,0,0,0-.02-.057" transform="translate(383.629 318.484)" fill="#915e44"/>
    <path id="Path_464" data-name="Path 464" d="M302.922,122.952a.652.652,0,0,0,.63.488.732.732,0,0,0,.167-.021.654.654,0,0,0,.465-.8,2.918,2.918,0,0,1-.11-1.247.646.646,0,0,0,.639.76.639.639,0,0,0,.339-.1,2.693,2.693,0,0,0,1.568-2.209,3.112,3.112,0,0,0-1.511-2.311.653.653,0,0,0-.69,1.11,2.305,2.305,0,0,1,.851.96,2.336,2.336,0,0,0-1.959.526,2.817,2.817,0,0,0-.389,2.838m1.208-1.758a.513.513,0,0,1,.1-.152l.019-.013a.642.642,0,0,0-.117.165m-.039.105a.29.29,0,0,1,.019-.057.223.223,0,0,0-.019.057" transform="translate(394.52 318.484)" fill="#915e44"/>
    <path id="Path_465" data-name="Path 465" d="M269.483,180.714c-2.579,9.154-5.337,21.806-6.865,29.1" transform="translate(381.314 339.317)" fill="none" stroke="#44b0a3" stroke-linecap="round" stroke-linejoin="round" stroke-width="1.099"/>
    <path id="Path_466" data-name="Path 466" d="M318.752,208.2c-1.591-7.51-4.171-19.148-6.581-27.657" transform="translate(397.625 339.26)" fill="none" stroke="#44b0a3" stroke-linecap="round" stroke-linejoin="round" stroke-width="1.099"/>
    <path id="Path_467" data-name="Path 467" d="M276.024,131.592a8.669,8.669,0,0,0,.28-2.276c.031-4.118-.517-8.593.976-12.517a9.276,9.276,0,0,1,3.756-4.669c3.432-2.1,6.982-1.126,10.555.011,3.8,1.208,7.813,1.551,11.54-.114,2.28-1.019,5.052-3.061,7.586-1.521,2.123,1.291,2.238,4.069,2.206,6.36a41.328,41.328,0,0,1-1.483,11.263,18.51,18.51,0,0,0-.509,3.95c-.06,1.111-.122,3.428,1.253,1.817,1.413-1.659.653-6.133,5.1-12.091,1.1-1.475,3.825-2.965,4.9-4.219,1.461-1.705.91-4.094.642-6.13-.306-2.307-1.388-3.867-1.091-6.169.542-4.216,1.859-6.165-2.321-8.606a6.318,6.318,0,0,1-3.183-4.53c-.412-1.865-.287-4.289-1.817-5.636-1.991-1.75-5.042-.637-7.18.074-3.451,1.151-7.119,1.965-10.686.877-2.6-.79-5.031-3.1-7.863-2.834-2.714.253-3.94,2.722-5.492,4.7-1.994,2.537-4.364,3.492-7.212,4.49-2.505.877-4.442,2.04-4.427,5.148.011,2.415.816,4.534-.291,6.831-1.439,2.981-3.928,4.543-3.19,8.164a15.079,15.079,0,0,0,4.507,8.043c3.046,2.6.805,5.117,2.335,8.905.554,1.376.9,1.272,1.107.677" transform="translate(383.066 307.685)" fill="#783c13"/>
    <path id="Path_468" data-name="Path 468" d="M284.133,133.3s11.008,3.371,17.17-6.113c0,0-1.357,19.135-17.17,6.113" transform="translate(388.396 321.699)" fill="#fff"/>
    <path id="Path_469" data-name="Path 469" d="M279.02,149.456s-5.3,5.606-7.907,8.618l15,11.74,3.012-11.74Z" transform="translate(384.11 329.029)" fill="#57e0cf"/>
    <path id="Path_470" data-name="Path 470" d="M300.7,149.456s6.328,3.972,8.931,6.983l-14.8,13.375L293.6,156.994Z" transform="translate(391.513 329.029)" fill="#57e0cf"/>
    <path id="Path_471" data-name="Path 471" d="M267.91,206.386s-3.322-1.41,5.335-11.927l13.055,2.68" transform="translate(382.85 343.842)" fill="none" stroke="#44b0a3" stroke-linecap="round" stroke-linejoin="round" stroke-width="1.099"/>
    <path id="Path_472" data-name="Path 472" d="M318.619,204.2s-1.2-7.671-2.769-10.35c0,0-8.877-.375-23.138,3.038" transform="translate(391.22 343.639)" fill="none" stroke="#44b0a3" stroke-linecap="round" stroke-linejoin="round" stroke-width="1.099"/>
    <path id="Path_473" data-name="Path 473" d="M301.1,179.257a1.873,1.873,0,1,1-1.874-1.874,1.874,1.874,0,0,1,1.874,1.874" transform="translate(392.747 338.221)" fill="#fff"/>
    <path id="Path_474" data-name="Path 474" d="M300.042,168.684a1.874,1.874,0,1,1-1.874-1.873,1.874,1.874,0,0,1,1.874,1.873" transform="translate(392.399 334.741)" fill="#fff"/>
    <path id="Path_475" data-name="Path 475" d="M302.157,189.83a1.874,1.874,0,1,1-1.874-1.874,1.875,1.875,0,0,1,1.874,1.874" transform="translate(393.095 341.701)" fill="#fff"/>
    <path id="Path_476" data-name="Path 476" d="M306.386,222.6a1.874,1.874,0,1,1-1.874-1.874,1.875,1.875,0,0,1,1.874,1.874" transform="translate(394.487 352.489)" fill="#fff"/>
    <path id="Path_477" data-name="Path 477" d="M307.442,234.234a1.873,1.873,0,1,1-1.874-1.874,1.874,1.874,0,0,1,1.874,1.874" transform="translate(394.835 356.317)" fill="#fff"/>
    <path id="Path_478" data-name="Path 478" d="M308.5,244.807a1.874,1.874,0,1,1-1.874-1.874,1.874,1.874,0,0,1,1.874,1.874" transform="translate(395.183 359.797)" fill="#fff"/>
    <path id="Path_479" data-name="Path 479" d="M267.783,250l3.026,81.018,8.335,41.781" transform="translate(383.014 362.122)" fill="none" stroke="#fff" stroke-linecap="round" stroke-linejoin="round" stroke-width="0.275" stroke-dasharray="2.197 2.197"/>
    <path id="Path_480" data-name="Path 480" d="M323.63,250.529l1.849,77.463-28.128,40.6" transform="translate(392.747 362.297)" fill="none" stroke="#fff" stroke-linecap="round" stroke-linejoin="round" stroke-width="0.275" stroke-dasharray="2.197 2.197"/>
    <path id="Path_481" data-name="Path 481" d="M293.6,155.127l1.223,12.821,13.633-12.319" transform="translate(391.513 330.895)" fill="none" stroke="#fff" stroke-linecap="round" stroke-linejoin="round" stroke-width="1.099"/>
    <path id="Path_482" data-name="Path 482" d="M288.23,155.94l-3.012,11.74-11.4-8.921" transform="translate(385.001 331.163)" fill="none" stroke="#fff" stroke-linecap="round" stroke-linejoin="round" stroke-width="1.099"/>
    <path id="Path_483" data-name="Path 483" d="M45.739,429.312c0,2.391-1.042,3.122-2.472,3.122h-.259a2.84,2.84,0,0,1-3.05-3.122V274.472c0-2.39,1.62-4.114,3.05-4.114h.259c1.43,0,2.472,1.724,2.472,4.114Z" transform="translate(308.023 368.824)" fill="#cc9033"/>
    <path id="Path_484" data-name="Path 484" d="M54.438,420.789c0,2.261-1.042,2.884-2.472,2.884h-.259c-1.43,0-3.05-.623-3.05-2.884V274.249c0-2.262,1.62-3.89,3.05-3.89h.259c1.43,0,2.472,1.628,2.472,3.89Z" transform="translate(310.887 368.825)" fill="#996c26"/>
    <path id="Path_485" data-name="Path 485" d="M338.032,420.789c0,2.261-1.042,2.884-2.474,2.884H335.3c-1.43,0-3.052-.623-3.052-2.884V274.249c0-2.262,1.622-3.89,3.052-3.89h.257c1.432,0,2.474,1.628,2.474,3.89Z" transform="translate(404.234 368.825)" fill="#996c26"/>
    <path id="Path_486" data-name="Path 486" d="M347.6,429.312c0,2.391-1.042,3.122-2.474,3.122h-.257a2.841,2.841,0,0,1-3.052-3.122V274.472c0-2.39,1.622-4.114,3.052-4.114h.257c1.432,0,2.474,1.724,2.474,4.114Z" transform="translate(407.383 368.824)" fill="#cc9033"/>
    <path id="Path_487" data-name="Path 487" d="M460.573,269.976c0,2.822-3.258,5.111-7.272,5.111H39.835c-4.015,0-7.272-2.289-7.272-5.111s3.256-5.111,7.272-5.111H453.3c4.014,0,7.272,2.289,7.272,5.111" transform="translate(305.589 367.016)" fill="#cc9033"/>
    <path id="Path_488" data-name="Path 488" d="M96.516,215.431h30.664l10.951,61.326H84.469Z" transform="translate(322.675 350.745)" fill="#c1c6db"/>
    <path id="Rectangle_67" data-name="Rectangle 67" d="M3.321,0h130.61a3.323,3.323,0,0,1,3.323,3.323v86.8a3.322,3.322,0,0,1-3.322,3.322H3.322A3.322,3.322,0,0,1,0,90.127V3.321A3.321,3.321,0,0,1,3.321,0Z" transform="translate(365.165 503.389)" fill="#1e2e6e"/>
    <rect id="Rectangle_68" data-name="Rectangle 68" width="122.652" height="59.867" transform="translate(372.466 509.229)" fill="#fff"/>
    <path id="Path_489" data-name="Path 489" d="M52.886,222.022V239.51a4.415,4.415,0,0,0,4.415,4.414H185.723a4.416,4.416,0,0,0,4.417-4.414V222.022Z" transform="translate(312.279 352.914)" fill="#d6d9e6"/>
    <path id="Path_490" data-name="Path 490" d="M106.154,229.98a2.192,2.192,0,1,1-2.192-2.192,2.191,2.191,0,0,1,2.192,2.192" transform="translate(328.37 354.812)" fill="#092229"/>
    <path id="Rectangle_69" data-name="Rectangle 69" d="M1.923,0h60.4a1.922,1.922,0,0,1,1.922,1.922v2a1.923,1.923,0,0,1-1.923,1.923H1.922A1.922,1.922,0,0,1,0,3.92v-2A1.923,1.923,0,0,1,1.923,0Z" transform="translate(401.669 627.501)" fill="#d6d9e6"/>
    <rect id="Rectangle_70" data-name="Rectangle 70" width="59.865" height="7.301" transform="translate(375.386 512.15)" fill="none" stroke="#e5e9fb" stroke-width="0.597"/>
    <rect id="Rectangle_71" data-name="Rectangle 71" width="43.804" height="18.982" transform="translate(375.386 523.831)" fill="#e5e9fb"/>
    <rect id="Rectangle_72" data-name="Rectangle 72" width="58.406" height="18.982" transform="translate(375.386 547.194)" fill="none" stroke="#e5e9fb" stroke-width="0.597"/>
    <rect id="Rectangle_73" data-name="Rectangle 73" width="64.246" height="2.92" transform="translate(423.571 523.831)" fill="#e5e9fb"/>
    <rect id="Rectangle_74" data-name="Rectangle 74" width="58.406" height="2.92" transform="translate(423.571 529.672)" fill="#e5e9fb"/>
    <rect id="Rectangle_75" data-name="Rectangle 75" width="48.185" height="2.92" transform="translate(423.571 535.512)" fill="#e5e9fb"/>
    <rect id="Rectangle_76" data-name="Rectangle 76" width="45.264" height="2.92" transform="translate(436.712 547.194)" fill="#e5e9fb"/>
    <rect id="Rectangle_77" data-name="Rectangle 77" width="52.566" height="2.92" transform="translate(436.712 554.495)" fill="#e5e9fb"/>
    <rect id="Rectangle_78" data-name="Rectangle 78" width="39.424" height="2.92" transform="translate(436.712 561.795)" fill="#e5e9fb"/>
    <rect id="Rectangle_79" data-name="Rectangle 79" width="48.185" height="2.92" transform="translate(438.173 513.61)" fill="none" stroke="#e5e9fb" stroke-width="0.597"/>
    <path id="Path_491" data-name="Path 491" d="M159.241,387.248c-1.745.722-1.889-3.1-4.685-2.886-5.4.419-12.494,3.787-17.1,3.787-7.568,0-9.526-2.355-9.526-5.572,0-2.41,13.526,1.332,21.76-5.19,2.034-1.611,7.413,2.081,9.784,1.635,1.124-.213,1.047,7.7-.23,8.226" transform="translate(336.979 403.919)" fill="#090e21"/>
    <path id="Path_492" data-name="Path 492" d="M157.883,347.278l6.91-58.669-1.963-61.831-23.8,5.152s-13.474,26.384-5.848,112.14c0,0,10.306,47.988,16.4,80.964-.189.488-1.239,2.47-6.331,4.461a44.222,44.222,0,0,1-6.353,1.259s-9.139,1.346,6.353,1.249c0,0,11.667-.14,15.257-3.541Z" transform="translate(337.939 354.48)" fill="#f3b595"/>
    <path id="Path_493" data-name="Path 493" d="M183.559,387.248c-1.747.722-1.89-3.1-4.687-2.886-5.394.419-12.494,3.787-17.1,3.787-7.568,0-9.527-2.355-9.527-5.572,0-2.41,13.526,1.332,21.761-5.19,2.034-1.611,7.413,2.081,9.784,1.635,1.124-.213,1.047,7.7-.23,8.226" transform="translate(344.983 403.919)" fill="#090e21"/>
    <path id="Path_494" data-name="Path 494" d="M182.2,347.278l2.984-27.544-2.633-38.854,4.6-54.1-23.8,5.152s-13.472,26.384-5.848,112.14c0,0,10.306,47.988,16.4,80.964-.187.488-1.237,2.47-6.329,4.461a44.265,44.265,0,0,1-6.353,1.259s-9.141,1.346,6.353,1.249c0,0,11.667-.14,15.257-3.541Z" transform="translate(345.944 354.48)" fill="#f3b595"/>
    <path id="Path_495" data-name="Path 495" d="M107.357,130.873c1.183,3.287-3.194,19.266-3.306,22.182-.215,5.632-.807,3.057-4.083,3.912-3.416.891-19.872-14.731-18.314-17.562.453-.821,8.1,6.581,7.192,3.114-1.575-6.021-5.9-15.231-4.8-16.386,1.6-1.676,6.832,14.233,7.215,10.891.335-2.913-4.595-17.367-2.23-17.276,1.206.045,4.761,15.889,5.86,15.6,1.244-.323-2.341-16.29.46-15.362,1.361.451,4.174,17.2,5.414,18.617,2.478,2.827,4.51-13.516,6.593-7.732" transform="translate(321.714 319.25)" fill="#f3b595"/>
    <path id="Path_496" data-name="Path 496" d="M137.5,220.451s-22.836,46.733-9.373,102.765c0,0,25.322,16.832,68.912-1.022,0,0-.431-39.132,1.2-49.22,0,0,12.794-34.682-6.854-55.561,0,0-33.852,14.016-53.888,3.038" transform="translate(335.646 351.397)" fill="#1e2e6e"/>
    <path id="Path_497" data-name="Path 497" d="M174.67,220.065c.4,6.42.366-5.929.246-10.617-.08.92-.148,1.842-.2,2.758-.019,1.886-.035,4.462-.044,7.859" transform="translate(352.365 348.775)" fill="#ffc873"/>
    <path id="Path_498" data-name="Path 498" d="M191.254,236.263a65.769,65.769,0,0,1,.047-7.829c.055-5.559.138-5.216.2-2.757a174.862,174.862,0,0,1,3.52-21.863c1.509,2.385,4.407-6.434,4.252-19.745-7.656-10.044-12.664-16.778-24.322-21.679-5.451-2.29-8.9-2.807-14.206-1.661-2.879.622-9.118-.6-12.009,1.034a50.625,50.625,0,0,0-19.314,12.578s-14.051,16.5,4.289,56.1a66.873,66.873,0,0,1,3.654,8.859c16.156,11.895,53.885-1.615,53.891-3.007l0-.032" transform="translate(335.778 332.546)" fill="#ffc873"/>
    <path id="Path_499" data-name="Path 499" d="M162.481,159.295c.191-1.061-10.768,8.231-22.354,13.561l-20.89,18.289c-1.211.657-4.26-6.517-7.609-15.769a155.08,155.08,0,0,1-14.581,14.315c4.352,18.738,10.351,35.231,16.8,34.724,7.413-.582,29.676-20.993,43.849-39.1,6.815-8.709,3.914-21.2,4.782-26.018" transform="translate(326.815 332.24)" fill="#ffc873"/>
    <path id="Path_500" data-name="Path 500" d="M113.039,180.538c-5.634-15.563-13.234-37.01-13.234-37.01L92.9,144.7c-.634,6.959.872,29.955,5.563,50.152a154.918,154.918,0,0,0,14.581-14.315" transform="translate(325.403 327.077)" fill="#f3b595"/>
    <path id="Path_501" data-name="Path 501" d="M177.669,233.292l-12.119,7.255s1.485,7.8,14.56,12.145l5.443-19.4Z" transform="translate(349.363 356.624)" fill="#f3b595"/>
    <path id="Path_502" data-name="Path 502" d="M208.019,221.754c0-7.437-22.111-41.995-34.165-52.8-8.235-7.379-2.886,11.448-4.108,24.143l18.816,30.3c-.052,1.7-3.053,8.73-6.283,15.84a116.076,116.076,0,0,1,13.83,4.893c6.142-9.182,11.911-18.769,11.911-22.382" transform="translate(350.549 334.901)" fill="#ffc873"/>
    <path id="Path_503" data-name="Path 503" d="M180.988,221.426c-3.8,8.364-7.914,16.832-7.914,16.832s4.309,6.328,7.28,8.44c0,0,7.474-9.929,14.464-20.38a116.156,116.156,0,0,0-13.83-4.893" transform="translate(351.84 352.718)" fill="#f3b595"/>
    <path id="Path_504" data-name="Path 504" d="M161.839,108.611a2.482,2.482,0,0,1,2.148.464c1.788,1.595.364,4.745-.023,6.651-.774,3.817-.786,7.72-1.619,11.537-.883,4.037-2.208,7.954-3.343,11.921-1.887,6.591-7.564,20.6-2.806,25.739,15.28,16.521,30.335-2.6,30.814-6.823,0,0-10.04,6.377-12.881-3.719-1.269-4.515,1.269-10.7,2.41-15,2.606-9.832,6.805-23.656-.13-32.7a20.948,20.948,0,0,0-8.432-6.43c-2.536-.892-7.885-.16-9.129,2.815-.388.926-.972,5.15.526,5.633a5.693,5.693,0,0,0,2.464-.082" transform="translate(345.674 312.713)" fill="#eb7150"/>
    <path id="Path_505" data-name="Path 505" d="M148.954,139.659l-5.968,28.848s-9.9,48.47,26.215.627L165,140.3Z" transform="translate(341.527 325.804)" fill="#f3b595"/>
    <path id="Path_506" data-name="Path 506" d="M164.546,140.619l-.047-.32-16.051-.641-5.169,24.995c8.529-6.674,16.085-14.311,21.267-24.034" transform="translate(342.033 325.804)" fill="#f2ac88"/>
    <path id="Path_507" data-name="Path 507" d="M171.016,147.207a19.757,19.757,0,0,1-21.857,17.4l-.254-.029a19.755,19.755,0,0,1-17.4-21.858l2.438-21.481a19.757,19.757,0,0,1,21.858-17.4l.25.029a19.756,19.756,0,0,1,17.4,21.857Z" transform="translate(338.114 313.972)" fill="#f3b595"/>
    <path id="Path_508" data-name="Path 508" d="M139.526,122.363a1.114,1.114,0,1,1-.981-1.233,1.116,1.116,0,0,1,.981,1.233" transform="translate(340.066 319.703)" fill="#42210b"/>
    <path id="Path_509" data-name="Path 509" d="M163.338,119.09s-2.35,21.417-3.776,30.7c0,0,2.182,3.76,6.7-32.249,0,0-.017-2.589-2.928,1.548" transform="translate(347.392 318.26)" fill="#f38061"/>
    <path id="Path_510" data-name="Path 510" d="M151.5,123.721a1.114,1.114,0,1,1-.981-1.232,1.115,1.115,0,0,1,.981,1.232" transform="translate(344.006 320.15)" fill="#42210b"/>
    <path id="Path_511" data-name="Path 511" d="M143.582,124.7a31.129,31.129,0,0,1-3.005,10.89,11.2,11.2,0,0,1,3.331,1.844" transform="translate(341.143 320.879)" fill="none" stroke="#42210b" stroke-linecap="round" stroke-linejoin="round" stroke-width="0.549"/>
    <line id="Line_19" data-name="Line 19" y1="1.782" x2="4.778" transform="translate(474.612 435.567)" fill="none" stroke="#f38061" stroke-linecap="round" stroke-linejoin="round" stroke-width="1.099"/>
    <line id="Line_20" data-name="Line 20" x1="4.256" y1="2.807" transform="translate(494.397 437.271)" fill="none" stroke="#f38061" stroke-linecap="round" stroke-linejoin="round" stroke-width="1.099"/>
    <path id="Path_512" data-name="Path 512" d="M169.849,131.644c-.48,4.227-3.728,7.329-7.257,6.928s-6-4.151-5.519-8.378,3.728-7.328,7.256-6.928,6,4.151,5.52,8.378" transform="translate(346.553 320.397)" fill="#f3b595"/>
    <path id="Path_513" data-name="Path 513" d="M161.883,132.439a.653.653,0,0,0,.572.556.637.637,0,0,0,.166,0,.651.651,0,0,0,.553-.739A2.919,2.919,0,0,1,163.2,131a.644.644,0,0,0,.55.828.628.628,0,0,0,.348-.056,2.7,2.7,0,0,0,1.808-2.018,3.1,3.1,0,0,0-1.244-2.467.652.652,0,0,0-.809,1.022,2.314,2.314,0,0,1,.738,1.051,2.34,2.34,0,0,0-2.007.3,2.818,2.818,0,0,0-.7,2.777m1.4-1.611a.5.5,0,0,1,.113-.14c.005-.005.015-.007.021-.011a.6.6,0,0,0-.134.15m-.052.1.025-.054a.493.493,0,0,0-.025.054" transform="translate(348.135 321.685)" fill="#915e44"/>
    <path id="Path_514" data-name="Path 514" d="M134.989,109.041a31.307,31.307,0,0,0-2.456,3.684,17.759,17.759,0,0,0-1.934,11.738c7.075-9.624,18.053-.949,32.183-10.827a17.438,17.438,0,0,0,3.7-3.367c1.279-1.6,1.151-5.206.129-6.858-1.4-2.266-4.413-3.371-6.873-4.047-9.764-2.686-18.971,2.221-24.744,9.678" transform="translate(337.767 312.296)" fill="#f38061"/>
    <path id="Path_515" data-name="Path 515" d="M168.226,111.1c2.2,7.729-4.93,26.5-6.138,24.379,0,0-.346-4.6-.4-5.605-.191-3.715-3.077-7.647-4.451-11.148-1.3-3.314-3.065-6.981-2.119-10.588.784-3,4.586-4.628,7.481-3.536a9.339,9.339,0,0,1,5.625,6.5" transform="translate(345.842 314.153)" fill="#f38061"/>
    <path id="Path_516" data-name="Path 516" d="M140.115,139.676s6.767,1.9,16.047-3.687c0,0-5.593,15.619-16.047,3.687" transform="translate(340.991 324.596)" fill="#fff"/>
    <path id="Path_517" data-name="Path 517" d="M125.81,203.262s-2.454-14.234,6.745-24.6" transform="translate(336.185 338.642)" fill="none" stroke="#d9a350" stroke-linecap="round" stroke-linejoin="round" stroke-width="1.099"/>
    <line id="Line_21" data-name="Line 21" x2="11.517" y2="19.629" transform="translate(517.955 523.152)" fill="none" stroke="#d9a350" stroke-linecap="round" stroke-linejoin="round" stroke-width="1.099"/>
    <path id="Path_518" data-name="Path 518" d="M164.705,228.893s-4.826,20.625,19.026,25.63" transform="translate(348.953 355.176)" fill="none" stroke="#0b1129" stroke-width="1.099"/>
    <path id="Path_519" data-name="Path 519" d="M146.427,183.894a1.873,1.873,0,1,1-1.873-1.874,1.874,1.874,0,0,1,1.873,1.874" transform="translate(341.835 339.747)" fill="#fff"/>
    <path id="Path_520" data-name="Path 520" d="M145.306,160.142s-3.744,12.158,3.237,22.87l-4.494,4.3s-19.556-18.817,1.257-27.172" transform="translate(339.544 332.546)" fill="#fff"/>
    <path id="Path_521" data-name="Path 521" d="M168.054,160.584s-12.449,19.652-22.82,22.282l2.684,5.274s36.439-10.716,20.137-27.556" transform="translate(342.676 332.691)" fill="#fff"/>
    <path id="Path_522" data-name="Path 522" d="M95.416,184.406s.21,6.888,2.553,12.085c0,0,15.19-9.416,19.172-18.594,0,0-1.739-6.11-4.081-8.92,0,0-11.322,6.916-17.645,15.429" transform="translate(326.278 335.454)" fill="#ffd38f"/>
    <path id="Path_523" data-name="Path 523" d="M110.942,175.411a1.463,1.463,0,1,1-1.463-1.463,1.464,1.464,0,0,1,1.463,1.463" transform="translate(330.426 337.09)" fill="#fff"/>
    <rect id="Rectangle_80" data-name="Rectangle 80" width="59.865" height="4.381" transform="translate(541.843 627.502)" fill="#ffb94d"/>
    <rect id="Rectangle_81" data-name="Rectangle 81" width="59.865" height="1.461" transform="translate(543.303 626.041)" fill="#ffc873"/>
    <path id="Path_524" data-name="Path 524" d="M347.391,293.549a27.39,27.39,0,0,0,3.568,10.718,7.1,7.1,0,0,0,2.174,2.249c2.49-1.964-1.685-8.222-1.255-11.084.707-4.687,4.691-9.345,5.905-13.926.218-.82,1.312-3.062,1.336-4.191-2.68,6.224-7.038,11.582-11.729,16.233" transform="translate(409.217 371.115)" fill="#f3b595"/>
    <path id="Path_525" data-name="Path 525" d="M355.107,282.428a61.516,61.516,0,0,1-6.928,8.386,26.635,26.635,0,0,0,4.225,9.018,7.088,7.088,0,0,0,2.376,2.032c2.291-2.19-2.456-8.025-2.3-10.915.152-2.786,1.433-5.667,2.622-8.521" transform="translate(409.477 372.797)" fill="#f3b595"/>
    <path id="Path_526" data-name="Path 526" d="M352.98,246.764c-2.035,11.71-3.6,47.6-2.108,50.517h7.3s9.708-31.421,11.234-52.393c.428-5.325,1.277-24.043,1.9-38.574-5.144-1.1-10.306-2.131-15.5-2.754-1.893,20.45-2.822,43.2-2.822,43.2" transform="translate(410.169 346.838)" fill="#f3b595"/>
    <path id="Path_527" data-name="Path 527" d="M366.672,192.278l0-.023c0-.045,0-.035,0,.023" transform="translate(415.564 343.107)" fill="#f3b595"/>
    <path id="Path_528" data-name="Path 528" d="M443.572,211.862c5.634-15.562,15.881-40.133,15.881-40.133l6.909,1.174c.634,6.959-7.8,60.353-13.89,66.769-7.026,3.653-40.036-26.458-41.5-27.81-2.509-2.319,14.832-18.7,12.489-21.188a197.886,197.886,0,0,1,20.108,21.188" transform="translate(430.065 336.36)" fill="#f3b595"/>
    <path id="Path_529" data-name="Path 529" d="M380.5,387.531l-.5,9.537h-10.28l.455-13.137Z" transform="translate(416.569 406.208)" fill="#f3b595"/>
    <path id="Path_530" data-name="Path 530" d="M367.536,396.061c0,.977-.157,3.078,2.14,3.819,5.263,1.7,16.589,1.482,23.585,1.482,7.57,0,10.663-2.085,10.663-5.3,0-2.411-5.937-.958-13.645-2.047-2.569-.363-6.464-3.944-8.734-2.866-7.277,3.457-8.981,1.933-11.352,1.486-1.124-.213-2.656,1.965-2.656,3.427" transform="translate(415.848 408.517)" fill="#090e21"/>
    <path id="Path_531" data-name="Path 531" d="M413.116,243.6s-7.758,26.17-15.385,111.926c0,0-7.954,48.171-13.864,81.037,0,0-5.648,2.23-13.807,0l-.6-77.291-1.711-59.9c-10.308-28.962,14.243-59.55,14.243-59.55Z" transform="translate(415.085 358.774)" fill="#506de4"/>
    <path id="Path_532" data-name="Path 532" d="M416.057,387.287l.2,9.473L406,397.516l-.51-13.1Z" transform="translate(428.343 406.369)" fill="#f3b595"/>
    <path id="Path_533" data-name="Path 533" d="M403.775,397.064c.07.976.07,3.081,2.416,3.651,5.375,1.308,16.652.255,23.631-.26,7.547-.556,10.479-2.863,10.241-6.069-.177-2.4-5.993-.518-13.759-1.037-2.588-.172-6.736-3.456-8.92-2.216-7,3.985-8.815,2.588-11.213,2.317-1.136-.128-2.5,2.157-2.4,3.614" transform="translate(427.775 408.487)" fill="#090e21"/>
    <path id="Path_534" data-name="Path 534" d="M427.223,241.575s4.447,26.408,3.157,112.493c0,0-4.386,48.625-7.861,81.838,0,0-5.468,2.641-13.77,1.017l-6.294-77.037-7.928-56.716-2.6-61.808Z" transform="translate(423.878 359.28)" fill="#465fc7"/>
    <path id="Path_535" data-name="Path 535" d="M454.091,203.246c-16.989-22.137-28.331-28.154-43.357-32.5-.437-.128-13.08-3.6-26.214.629-3.278,1.055-7.009,12.864-10.669,14.235,2.967,17.8-2.793,25.973-7.152,44.62-1.247,24.8-3.154,75.232-3.154,75.232,24.076,4.921,66.047,17.391,78.226,2.245-4.215-37.634-4.962-69.442-8.467-89.088,1.509,2.385,8.116,8.949,9.873,11.5,4.071-5.657,10.919-9.067,10.914-26.868" transform="translate(414.535 335.554)" fill="#1e2e6e"/>
    <path id="Path_536" data-name="Path 536" d="M444.531,159.074c-1.183,3.287,3.193,19.265,3.306,22.181.217,5.632.807,3.058,4.083,3.913,3.416.891,19.872-14.731,18.313-17.564-.452-.82-8.1,6.581-7.192,3.114,1.575-6.021,5.9-15.231,4.8-16.386-1.6-1.676-6.832,14.233-7.216,10.892-.335-2.914,4.6-17.367,2.232-17.278-1.206.047-4.762,15.89-5.86,15.6-1.244-.324,2.339-16.292-.461-15.362-1.36.451-4.172,17.2-5.411,18.616-2.479,2.827-4.511-13.516-6.594-7.73" transform="translate(441.125 328.532)" fill="#f3b595"/>
    <path id="Path_537" data-name="Path 537" d="M399.576,148.677l5.964,28.848s3.411,20.735-26.214.629l4.2-28.837Z" transform="translate(419.729 328.772)" fill="#f3b595"/>
    <path id="Path_538" data-name="Path 538" d="M381.877,155.6l3.772-9.131,13.087,2.94,5.169,25c-3.819-1.737-16.882-6.2-22.028-18.8" transform="translate(420.569 328.044)" fill="#f2ac88"/>
    <path id="Path_539" data-name="Path 539" d="M381.166,159.4a19.754,19.754,0,0,0,21.858,17.4l.251-.028a19.754,19.754,0,0,0,17.4-21.858l-2.436-21.482a19.756,19.756,0,0,0-21.858-17.4l-.25.029a19.755,19.755,0,0,0-17.4,21.857Z" transform="translate(419.49 317.984)" fill="#f3b595"/>
    <path id="Path_540" data-name="Path 540" d="M402.755,134.553a1.114,1.114,0,1,0,.981-1.232,1.114,1.114,0,0,0-.981,1.232" transform="translate(427.439 323.715)" fill="#42210b"/>
    <path id="Path_541" data-name="Path 541" d="M390.786,135.912a1.115,1.115,0,1,0,.981-1.233,1.114,1.114,0,0,0-.981,1.233" transform="translate(423.499 324.162)" fill="#42210b"/>
    <path id="Path_542" data-name="Path 542" d="M398.972,136.889a31.113,31.113,0,0,0,3.007,10.89,11.229,11.229,0,0,0-3.332,1.842" transform="translate(426.088 324.892)" fill="none" stroke="#42210b" stroke-linecap="round" stroke-linejoin="round" stroke-width="0.549"/>
    <line id="Line_22" data-name="Line 22" x1="4.776" y1="1.781" transform="translate(830.397 451.772)" fill="none" stroke="#43ada0" stroke-linecap="round" stroke-linejoin="round" stroke-width="1.099"/>
    <line id="Line_23" data-name="Line 23" y1="2.807" x2="4.255" transform="translate(811.135 453.474)" fill="none" stroke="#43ada0" stroke-linecap="round" stroke-linejoin="round" stroke-width="1.099"/>
    <path id="Path_543" data-name="Path 543" d="M375.074,143.835c.483,4.227,3.73,7.328,7.256,6.928s6-4.151,5.52-8.378-3.728-7.329-7.255-6.928-6,4.151-5.521,8.378" transform="translate(418.31 324.409)" fill="#f3b595"/>
    <path id="Path_544" data-name="Path 544" d="M380.157,141.853a2.333,2.333,0,0,0-2.006-.3,2.311,2.311,0,0,1,.736-1.051.652.652,0,0,0-.809-1.023,3.113,3.113,0,0,0-1.244,2.468,2.7,2.7,0,0,0,1.809,2.018.651.651,0,0,0,.346.057.658.658,0,0,0,.521-.375.651.651,0,0,0,.032-.455,2.94,2.94,0,0,1,.031,1.252.652.652,0,0,0,.55.74.813.813,0,0,0,.17,0,.653.653,0,0,0,.57-.557,2.813,2.813,0,0,0-.706-2.775m-.827,1.015a.164.164,0,0,1,.021.011.526.526,0,0,1,.113.14.63.63,0,0,0-.134-.15m.159.2a.525.525,0,0,1,.025.055.346.346,0,0,0-.025-.055" transform="translate(418.905 325.698)" fill="#915e44"/>
    <path id="Path_545" data-name="Path 545" d="M415.923,121.778a31.321,31.321,0,0,1,2.456,3.686,17.756,17.756,0,0,1,1.933,11.738c-7.072-9.626-18.051-.95-32.182-10.829a17.332,17.332,0,0,1-3.694-3.367c-1.28-1.6-1.152-5.2-.13-6.858,1.4-2.266,4.413-3.371,6.873-4.046,9.764-2.686,18.97,2.22,24.744,9.676" transform="translate(421.106 316.489)" fill="#4dc7b8"/>
    <path id="Path_546" data-name="Path 546" d="M376.939,123.839c-2.205,7.729,3.557,15.9,4.866,23.066.05.292.944,1.627,1.275,1.313,0,0,.343-4.6.4-5.6.189-3.715,3.076-7.647,4.449-11.149,1.3-3.312,3.066-6.979,2.12-10.588-.784-3-4.588-4.627-7.481-3.534a9.339,9.339,0,0,0-5.625,6.5" transform="translate(418.78 318.346)" fill="#4dc7b8"/>
    <path id="Path_547" data-name="Path 547" d="M405.588,151.867s-6.768,1.9-16.046-3.687c0,0,5.592,15.619,16.046,3.687" transform="translate(423.092 328.609)" fill="#42210b"/>
    <path id="Path_548" data-name="Path 548" d="M389.305,170.854c-11.138,4-26.732,17.477-26.732,17.477-7.232,7.786-9.166,21.389-13.565,40.937,0,0,6.125,9.555,22.548,6.951-.409,3.6,20.716-47.564,17.75-65.365" transform="translate(409.75 336.072)" fill="#1e2e6e"/>
    <path id="Path_549" data-name="Path 549" d="M358.733,279.044s1.61,14.718,0,15.069c0,0-1.672,5.093-5.925-15.543Z" transform="translate(411.002 371.527)" fill="#f3b595"/>
    <path id="Path_550" data-name="Path 550" d="M359.938,272.639s.856,8.727.857,8.738c.1.978-1.643,3.4-2.028,4.252-1.938,4.325-6.619,8.283-8.072,12.793-.885,2.755,2.225,9.6-.549,11.142A7.116,7.116,0,0,1,348.364,307c-2.311-5.733-2.165-12.15-.956-18.119a61.137,61.137,0,0,1,2.541-8.783c.331-.907,2.753-8.218,3.566-8.218h2.054Z" transform="translate(408.94 369.324)" fill="#f3b595"/>
    <path id="Path_551" data-name="Path 551" d="M365.884,230.1c.456-7.813,1.5-23.717,3.283-40.668" transform="translate(415.305 342.186)" fill="none" stroke="#0d1430" stroke-linecap="round" stroke-linejoin="round" stroke-width="1.099"/>
    <path id="Path_552" data-name="Path 552" d="M411.3,188.019a135.537,135.537,0,0,1,7.6,37.706" transform="translate(430.253 341.722)" fill="none" stroke="#0d1430" stroke-linecap="round" stroke-linejoin="round" stroke-width="1.099"/>
    <path id="Path_553" data-name="Path 553" d="M370.14,420.93c3.615-21.138,0-132.671,0-132.671s10.783-2.141,12.792-11.467" transform="translate(416.706 370.942)" fill="none" stroke="#fff" stroke-linecap="round" stroke-linejoin="round" stroke-width="0.275" stroke-dasharray="2.197 2.197"/>
    <path id="Path_554" data-name="Path 554" d="M380.644,170.381s27.389,19.915,26.214,0c0,0,3.65,5.775-1.917,12.054,0,0-9.307,8.5-29.159-8.342-1.75-1.485,1.841-1.828,4.862-3.712" transform="translate(418.411 335.916)" fill="#fff"/>
    <path id="Path_555" data-name="Path 555" d="M423.457,220.436s9.525-9.28,10.914-21.752" transform="translate(434.255 345.232)" fill="none" stroke="#fff" stroke-linecap="round" stroke-linejoin="round" stroke-width="1.099"/>
    <path id="Rectangle_82" data-name="Rectangle 82" d="M1.446,0H89.082a1.447,1.447,0,0,1,1.447,1.447V59.88a1.446,1.446,0,0,1-1.446,1.446H1.447A1.447,1.447,0,0,1,0,59.879V1.446A1.446,1.446,0,0,1,1.446,0Z" transform="translate(632.371 570.556)" fill="#d6d9e6"/>
    <path id="Path_556" data-name="Path 556" d="M295.538,243.3a6.062,6.062,0,1,1-6.061-6.062,6.062,6.062,0,0,1,6.061,6.062" transform="translate(388.159 357.922)" fill="#092229"/>
    <path id="Path_557" data-name="Path 557" d="M86.589,258.243c0-4.45-1.942-8.15-7.782-8.951v-3.1H53.985v24.823h.71c-.062,0-.1-.124-.1-.015,0,1.4,5.535,2.37,12.363,2.37s12.362-.885,12.362-2.287c0-.108-.043-.068-.106-.068h-.4v-3.825c5.84-.8,7.782-4.5,7.782-8.945M78.807,263.3V253.179a5.209,5.209,0,0,1,0,10.123" transform="translate(312.641 360.869)" fill="#ffb29e"/>
    <path id="Path_558" data-name="Path 558" d="M79.165,246.631c0,1.4-5.535,2.537-12.362,2.537s-12.362-1.135-12.362-2.537S59.975,244.1,66.8,244.1s12.362,1.136,12.362,2.536" transform="translate(312.79 360.18)" fill="#e68c75"/>
    <path id="Path_559" data-name="Path 559" d="M57.6,247.591a47.646,47.646,0,0,0,8.16.634,47.674,47.674,0,0,0,8.161-.634,47.681,47.681,0,0,0-8.161-.633,47.653,47.653,0,0,0-8.16.633" transform="translate(313.831 361.122)" fill="#784900"/>
  </g>
</svg>
